<svg width="434" height="127" viewBox="0 0 434 127" fill="none" xmlns="http://www.w3.org/2000/svg">
<g clip-path="url(#clip0)">
<path d="M72.7588 6.37207H20.8034C6.9776 6.37207 0 13.0833 0 26.3766V97.5222C0 99.2647 0.935927 100.338 2.95235 100.338H18.6577C20.5371 100.338 21.747 99.2647 21.747 97.5222V94.821C21.747 88.2314 24.5243 84.6399 31.4258 83.9475H72.7588C87.9239 83.9475 94.7721 77.3731 94.7721 63.0071V27.3125C94.7721 12.9464 87.9239 6.37207 72.7588 6.37207ZM73.0479 56.9654C73.0479 64.7572 71.2826 66.3627 62.0147 66.3627H40.0014C30.741 66.3627 24.8287 69.452 21.7394 75.4937V31.6117C21.7394 25.57 23.2155 23.9568 30.5964 23.9568H62.0147C71.2826 23.9568 73.0479 25.57 73.0479 33.3542V56.9654Z" fill="#FF79C6"/>
<path d="M144.574 45.7038C132.628 45.7038 127.522 51.7455 127.522 61.9494V97.7885C127.522 99.4017 126.715 100.338 124.836 100.338H110.607C108.727 100.338 107.791 99.4017 107.791 97.7885V32.2813C107.791 30.6681 108.727 29.7246 110.607 29.7246H122.553C124.303 29.7246 125.239 30.6681 125.239 32.2813V42.8504C127.522 34.1303 134.104 29.6942 145.784 29.6942H150.616C152.358 29.6942 153.294 30.6377 153.294 32.2508V43.1548C153.294 44.8973 152.358 45.7038 150.616 45.7038H144.574Z" fill="#FF79C6"/>
<path d="M237.193 81.1397C237.193 94.4329 231.288 100.338 217.196 100.338H182.293C168.33 100.338 162.288 94.4329 162.288 81.1397V48.9377C162.288 35.6521 168.33 29.7398 182.293 29.7398H217.196C231.288 29.7398 237.193 35.6521 237.193 48.9377V81.1397ZM217.462 54.0283C217.462 47.043 216.123 45.7038 207.799 45.7038H191.819C183.366 45.7038 182.019 47.043 182.019 54.0283V76.0416C182.019 83.0192 183.366 84.366 191.819 84.366H207.799C216.123 84.366 217.462 83.0192 217.462 76.0416V54.0283Z" fill="#FF79C6"/>
<path d="M257.06 45.7038H250.341C248.591 45.7038 247.655 44.8973 247.655 43.1548V32.2813C247.655 30.6681 248.591 29.7246 250.341 29.7246H257.053V21.0045C257.06 7.71128 264.038 1 277.864 1H294.376C296.255 1 297.062 1.94354 297.062 3.54907V14.4226C297.062 16.1727 296.255 16.9716 294.376 16.9716H285.655C278.267 16.9716 276.791 18.5848 276.791 24.6264V29.7246H294.376C296.255 29.7246 297.062 30.6681 297.062 32.2813V43.1548C297.062 44.8973 296.255 45.7038 294.376 45.7038H276.791V97.7885C276.791 99.4017 275.855 100.338 273.975 100.338H259.746C257.867 100.338 257.06 99.4017 257.06 97.7885V45.7038Z" fill="#FF79C6"/>
<path d="M311.831 45.7038H305.127C303.385 45.7038 302.449 44.8973 302.449 43.1548V32.2813C302.449 30.6681 303.385 29.7246 305.127 29.7246H311.846V21.0045C311.831 7.71128 318.824 1 332.634 1H349.146C351.026 1 351.832 1.94354 351.832 3.54907V14.4226C351.832 16.1727 351.026 16.9716 349.146 16.9716H340.419C333.038 16.9716 331.562 18.5848 331.562 24.6264V29.7246H349.146C351.026 29.7246 351.832 30.6681 351.832 32.2813V43.1548C351.832 44.8973 351.026 45.7038 349.146 45.7038H331.562V97.7885C331.562 99.4017 330.618 100.338 328.739 100.338H314.509C312.63 100.338 311.831 99.4017 311.831 97.7885V45.7038Z" fill="#FF79C6"/>
<path d="M411.831 127.723H382.566C369.417 127.723 363.779 122.625 363.779 110.001V108.662C363.74 108.302 363.782 107.937 363.904 107.596C364.025 107.254 364.221 106.944 364.479 106.689C364.736 106.434 365.047 106.24 365.39 106.122C365.733 106.004 366.097 105.964 366.457 106.006H380.154C382.033 106.006 382.969 106.95 382.969 108.692V109.362C382.969 112.048 384.453 113.121 387.405 113.121H404.32C412.371 113.121 414.387 111.112 414.387 104.264V83.0876C411.298 89.1293 405.393 92.2186 396.125 92.2186H382.429C368.466 92.2186 362.287 86.3139 362.287 73.0207V32.2813C362.269 31.9295 362.327 31.5779 362.458 31.2507C362.588 30.9234 362.788 30.6283 363.043 30.3854C363.298 30.1426 363.602 29.9578 363.936 29.8437C364.269 29.7296 364.623 29.689 364.973 29.7246H379.34C381.082 29.7246 382.026 30.6681 382.026 32.2813V67.9606C382.026 74.9382 383.502 76.285 391.826 76.285H402.03C410.887 76.285 414.38 72.6555 414.38 65.2746V32.2813C414.38 30.6681 415.316 29.7246 417.066 29.7246H431.439C431.783 29.6914 432.13 29.7348 432.455 29.8517C432.78 29.9685 433.075 30.1559 433.318 30.4004C433.562 30.6449 433.749 30.9404 433.864 31.2656C433.98 31.5908 434.023 31.9377 433.989 32.2813V106.379C433.981 120.464 426.463 127.723 411.831 127.723Z" fill="#FF79C6"/>
</g>
<defs>
<clipPath id="clip0">
<rect width="434" height="127" fill="white"/>
</clipPath>
</defs>
</svg>
